<svg width="419" height="53" viewBox="0 0 419 53" fill="none" xmlns="http://www.w3.org/2000/svg">
<path d="M81.604 40H76.24V14.296H90.964V18.76H81.604V25.384H90.316V29.848H81.604V40ZM122.494 30.928C122.494 32.704 122.098 34.312 121.306 35.752C120.538 37.168 119.362 38.296 117.778 39.136C116.218 39.952 114.238 40.36 111.838 40.36C108.43 40.36 105.838 39.496 104.062 37.768C102.286 36.016 101.398 33.712 101.398 30.856V14.296H106.834V30.028C106.834 32.14 107.266 33.628 108.13 34.492C108.994 35.356 110.278 35.788 111.982 35.788C113.182 35.788 114.154 35.584 114.898 35.176C115.642 34.768 116.182 34.132 116.518 33.268C116.878 32.404 117.058 31.312 117.058 29.992V14.296H122.494V30.928ZM144.269 40H138.833V18.832H131.849V14.296H151.253V18.832H144.269V40Z" fill="#0DAA2A"/>
<path d="M186.636 18.472C185.604 18.472 184.68 18.676 183.864 19.084C183.072 19.492 182.4 20.08 181.848 20.848C181.296 21.592 180.876 22.504 180.588 23.584C180.324 24.664 180.192 25.876 180.192 27.22C180.192 29.044 180.408 30.604 180.84 31.9C181.296 33.172 182.004 34.144 182.964 34.816C183.924 35.488 185.148 35.824 186.636 35.824C187.692 35.824 188.736 35.704 189.768 35.464C190.824 35.224 191.964 34.888 193.188 34.456V39.028C192.06 39.484 190.944 39.82 189.84 40.036C188.736 40.252 187.5 40.36 186.132 40.36C183.492 40.36 181.308 39.82 179.58 38.74C177.876 37.636 176.616 36.1 175.8 34.132C174.984 32.14 174.576 29.824 174.576 27.184C174.576 25.24 174.84 23.464 175.368 21.856C175.896 20.224 176.664 18.82 177.672 17.644C178.704 16.468 179.964 15.556 181.452 14.908C182.964 14.26 184.692 13.936 186.636 13.936C187.908 13.936 189.18 14.104 190.452 14.44C191.748 14.752 192.984 15.184 194.16 15.736L192.396 20.164C191.436 19.708 190.464 19.312 189.48 18.976C188.52 18.64 187.572 18.472 186.636 18.472ZM209.162 18.22C209.162 19.18 209.126 20.104 209.054 20.992C209.006 21.88 208.958 22.504 208.91 22.864H209.198C209.63 22.192 210.134 21.652 210.71 21.244C211.286 20.812 211.922 20.5 212.618 20.308C213.338 20.092 214.094 19.984 214.886 19.984C216.302 19.984 217.538 20.236 218.594 20.74C219.65 21.244 220.466 22.024 221.042 23.08C221.642 24.136 221.942 25.504 221.942 27.184V40H216.578V28.516C216.578 27.1 216.314 26.044 215.786 25.348C215.282 24.628 214.49 24.268 213.41 24.268C212.33 24.268 211.478 24.52 210.854 25.024C210.254 25.528 209.822 26.26 209.558 27.22C209.294 28.18 209.162 29.356 209.162 30.748V40H203.798V12.64H209.162V18.22ZM241.102 19.948C243.742 19.948 245.758 20.524 247.15 21.676C248.566 22.804 249.274 24.544 249.274 26.896V40H245.53L244.486 37.336H244.342C243.79 38.032 243.214 38.608 242.614 39.064C242.038 39.52 241.366 39.844 240.598 40.036C239.854 40.252 238.93 40.36 237.826 40.36C236.674 40.36 235.63 40.144 234.694 39.712C233.782 39.256 233.062 38.572 232.534 37.66C232.006 36.724 231.742 35.548 231.742 34.132C231.742 32.044 232.474 30.508 233.938 29.524C235.402 28.516 237.598 27.964 240.526 27.868L243.946 27.76V26.896C243.946 25.864 243.67 25.108 243.118 24.628C242.59 24.148 241.846 23.908 240.886 23.908C239.926 23.908 238.99 24.052 238.078 24.34C237.166 24.604 236.254 24.94 235.342 25.348L233.578 21.712C234.634 21.16 235.798 20.728 237.07 20.416C238.366 20.104 239.71 19.948 241.102 19.948ZM241.858 30.964C240.13 31.012 238.93 31.324 238.258 31.9C237.586 32.476 237.25 33.232 237.25 34.168C237.25 34.984 237.49 35.572 237.97 35.932C238.45 36.268 239.074 36.436 239.842 36.436C240.994 36.436 241.966 36.1 242.758 35.428C243.55 34.732 243.946 33.76 243.946 32.512V30.892L241.858 30.964ZM283.421 19.984C285.653 19.984 287.333 20.56 288.461 21.712C289.613 22.84 290.189 24.664 290.189 27.184V40H284.825V28.516C284.825 27.1 284.585 26.044 284.105 25.348C283.625 24.628 282.881 24.268 281.873 24.268C280.457 24.268 279.449 24.772 278.849 25.78C278.249 26.788 277.949 28.24 277.949 30.136V40H272.585V28.516C272.585 27.58 272.477 26.8 272.261 26.176C272.045 25.552 271.721 25.084 271.289 24.772C270.857 24.436 270.305 24.268 269.633 24.268C268.649 24.268 267.869 24.52 267.293 25.024C266.717 25.528 266.309 26.26 266.069 27.22C265.829 28.18 265.709 29.356 265.709 30.748V40H260.345V20.344H264.449L265.169 22.864H265.457C265.865 22.192 266.369 21.652 266.969 21.244C267.569 20.812 268.229 20.5 268.949 20.308C269.693 20.092 270.437 19.984 271.181 19.984C272.621 19.984 273.845 20.224 274.853 20.704C275.861 21.16 276.629 21.88 277.157 22.864H277.625C278.225 21.856 279.053 21.124 280.109 20.668C281.189 20.212 282.293 19.984 283.421 19.984ZM312.236 19.984C314.444 19.984 316.232 20.848 317.6 22.576C318.968 24.28 319.652 26.8 319.652 30.136C319.652 32.368 319.328 34.252 318.68 35.788C318.032 37.3 317.144 38.44 316.016 39.208C314.888 39.976 313.58 40.36 312.092 40.36C311.156 40.36 310.34 40.24 309.644 40C308.972 39.76 308.396 39.448 307.916 39.064C307.436 38.68 307.016 38.272 306.656 37.84H306.368C306.464 38.296 306.536 38.776 306.584 39.28C306.632 39.76 306.656 40.24 306.656 40.72V48.64H301.292V20.344H305.648L306.404 22.9H306.656C307.016 22.372 307.448 21.892 307.952 21.46C308.456 21.004 309.056 20.644 309.752 20.38C310.472 20.116 311.3 19.984 312.236 19.984ZM310.508 24.268C309.572 24.268 308.828 24.46 308.276 24.844C307.724 25.228 307.316 25.816 307.052 26.608C306.812 27.376 306.68 28.348 306.656 29.524V30.1C306.656 31.372 306.776 32.452 307.016 33.34C307.256 34.204 307.664 34.864 308.24 35.32C308.816 35.776 309.596 36.004 310.58 36.004C311.396 36.004 312.068 35.776 312.596 35.32C313.124 34.864 313.52 34.192 313.784 33.304C314.048 32.416 314.18 31.336 314.18 30.064C314.18 28.144 313.88 26.704 313.28 25.744C312.704 24.76 311.78 24.268 310.508 24.268ZM335.017 20.344V40H329.653V20.344H335.017ZM332.353 12.64C333.145 12.64 333.829 12.832 334.405 13.216C334.981 13.576 335.269 14.26 335.269 15.268C335.269 16.252 334.981 16.936 334.405 17.32C333.829 17.704 333.145 17.896 332.353 17.896C331.537 17.896 330.841 17.704 330.265 17.32C329.713 16.936 329.437 16.252 329.437 15.268C329.437 14.26 329.713 13.576 330.265 13.216C330.841 12.832 331.537 12.64 332.353 12.64ZM364.058 30.136C364.058 31.768 363.83 33.22 363.374 34.492C362.942 35.764 362.306 36.844 361.466 37.732C360.65 38.596 359.654 39.256 358.478 39.712C357.302 40.144 355.97 40.36 354.482 40.36C353.114 40.36 351.842 40.144 350.666 39.712C349.514 39.256 348.518 38.596 347.678 37.732C346.838 36.844 346.178 35.764 345.698 34.492C345.242 33.22 345.014 31.768 345.014 30.136C345.014 27.952 345.398 26.116 346.166 24.628C346.934 23.116 348.038 21.964 349.478 21.172C350.918 20.38 352.622 19.984 354.59 19.984C356.438 19.984 358.07 20.38 359.486 21.172C360.902 21.964 362.018 23.116 362.834 24.628C363.65 26.116 364.058 27.952 364.058 30.136ZM350.486 30.136C350.486 31.432 350.618 32.524 350.882 33.412C351.17 34.276 351.614 34.936 352.214 35.392C352.814 35.824 353.594 36.04 354.554 36.04C355.514 36.04 356.282 35.824 356.858 35.392C357.458 34.936 357.89 34.276 358.154 33.412C358.442 32.524 358.586 31.432 358.586 30.136C358.586 28.84 358.442 27.76 358.154 26.896C357.89 26.032 357.458 25.384 356.858 24.952C356.258 24.52 355.478 24.304 354.518 24.304C353.102 24.304 352.07 24.796 351.422 25.78C350.798 26.74 350.486 28.192 350.486 30.136ZM385.231 19.984C387.343 19.984 389.035 20.56 390.307 21.712C391.579 22.84 392.215 24.664 392.215 27.184V40H386.851V28.516C386.851 27.1 386.599 26.044 386.095 25.348C385.591 24.628 384.787 24.268 383.683 24.268C382.051 24.268 380.935 24.832 380.335 25.96C379.735 27.064 379.435 28.66 379.435 30.748V40H374.071V20.344H378.175L378.895 22.864H379.183C379.615 22.192 380.143 21.652 380.767 21.244C381.391 20.812 382.087 20.5 382.855 20.308C383.623 20.092 384.415 19.984 385.231 19.984ZM417.027 34.168C417.027 35.488 416.715 36.616 416.091 37.552C415.467 38.464 414.531 39.16 413.283 39.64C412.035 40.12 410.487 40.36 408.639 40.36C407.271 40.36 406.095 40.264 405.111 40.072C404.127 39.904 403.143 39.616 402.159 39.208V34.78C403.215 35.26 404.355 35.656 405.579 35.968C406.803 36.28 407.883 36.436 408.819 36.436C409.875 36.436 410.619 36.28 411.051 35.968C411.507 35.656 411.735 35.248 411.735 34.744C411.735 34.408 411.639 34.108 411.447 33.844C411.279 33.58 410.895 33.28 410.295 32.944C409.695 32.608 408.759 32.176 407.487 31.648C406.263 31.12 405.255 30.604 404.463 30.1C403.671 29.572 403.083 28.948 402.699 28.228C402.315 27.484 402.123 26.56 402.123 25.456C402.123 23.632 402.831 22.264 404.247 21.352C405.663 20.44 407.547 19.984 409.899 19.984C411.123 19.984 412.287 20.104 413.391 20.344C414.495 20.584 415.635 20.98 416.811 21.532L415.191 25.384C414.543 25.096 413.919 24.844 413.319 24.628C412.719 24.412 412.131 24.244 411.555 24.124C411.003 24.004 410.427 23.944 409.827 23.944C409.035 23.944 408.435 24.052 408.027 24.268C407.643 24.484 407.451 24.808 407.451 25.24C407.451 25.552 407.547 25.84 407.739 26.104C407.955 26.344 408.351 26.608 408.927 26.896C409.527 27.184 410.403 27.568 411.555 28.048C412.683 28.504 413.655 28.984 414.471 29.488C415.287 29.968 415.911 30.58 416.343 31.324C416.799 32.044 417.027 32.992 417.027 34.168Z" fill="#1E1E1E"/>
<path d="M45.9963 27.5257C46.0075 27.4375 46.0075 27.3482 45.9963 27.26C46.0185 26.8395 46.0406 26.441 46.0406 26.0205C46.0484 20.7752 44.2507 15.687 40.9496 11.6107C40.8727 11.4656 40.7673 11.3376 40.6397 11.2344C38.1993 8.31721 35.0735 6.05083 31.5423 4.63817L31.2988 4.54963C25.9732 2.48346 20.0675 2.48346 14.7419 4.54963L14.4984 4.63817C10.9671 6.05083 7.84135 8.31721 5.40094 11.2344C5.27333 11.3376 5.16792 11.4656 5.09105 11.6107C1.78996 15.687 -0.00771048 20.7752 2.48598e-05 26.0205C2.48598e-05 26.441 0.0221599 26.8395 0.0442948 27.26C0.0331838 27.3482 0.0331838 27.4375 0.0442948 27.5257C0.299577 31.3291 1.49357 35.0099 3.51947 38.2389C3.58756 38.3724 3.66915 38.4985 3.76296 38.6152C6.87418 43.3638 11.6259 46.7996 17.1103 48.2661H17.1767C21.0078 49.2694 25.0328 49.2694 28.8639 48.2661H28.9303C34.4147 46.7996 39.1665 43.3638 42.2777 38.6152C42.3715 38.4985 42.4531 38.3724 42.5212 38.2389C44.5471 35.0099 45.7411 31.3291 45.9963 27.5257ZM9.85005 23.6078L12.7719 24.5596L15.583 33.2365L13.7901 35.7156H6.13139C4.77867 33.388 3.9338 30.8006 3.65228 28.1233L9.85005 23.6078ZM36.1906 23.6078L42.3884 28.1233C42.1068 30.8006 41.262 33.388 39.9092 35.7156H32.2506L30.4576 33.2365L33.2688 24.5596L36.1906 23.6078ZM37.4523 12.9609L35.0838 20.2433L32.162 21.1951L24.7911 15.8163V12.7617L30.9889 8.24615C33.4496 9.34795 35.6516 10.9542 37.4523 12.9609ZM15.0518 8.24615L21.2495 12.7617V15.8163L13.8786 21.1951L10.9568 20.2433L8.58837 12.9609C10.389 10.9542 12.591 9.34795 15.0518 8.24615ZM19.036 45.0786L16.6676 37.7962L18.4605 35.3171H27.5801L29.373 37.7962L27.0046 45.0786C24.378 45.6395 21.6626 45.6395 19.036 45.0786Z" fill="black" fill-opacity="0.79"/>
</svg>
